<svg xmlns="http://www.w3.org/2000/svg" xmlns:xlink="http://www.w3.org/1999/xlink" width="147.333" height="104.102" viewBox="0 0 147.333 104.102">
  <defs>
    <linearGradient id="linear-gradient" x1="0.5" x2="0.5" y2="1" gradientUnits="objectBoundingBox">
      <stop offset="0" stop-color="#173348"/>
      <stop offset="1" stop-color="#0a1621"/>
    </linearGradient>
  </defs>
  <g id="Group_775" data-name="Group 775" transform="translate(-50 -40)">
    <g id="Group_771" data-name="Group 771">
      <path id="Path_756" data-name="Path 756" d="M73.667,0H104.1V147.333H73.667A73.667,73.667,0,0,1,73.667,0Z" transform="translate(50 144.102) rotate(-90)" fill="url(#linear-gradient)"/>
    </g>
    <g id="Group_654" data-name="Group 654" transform="translate(97.193 50.926)">
      <g id="Group_652" data-name="Group 652" transform="translate(8.098 53.791)">
        <path id="Path_724" data-name="Path 724" d="M138.781,287.83v-7.242h-1.187v-1.208h3.215a9.153,9.153,0,0,1,1.99.16,2.114,2.114,0,0,1,1.17.809,2.4,2.4,0,0,1,.507,1.524,2.45,2.45,0,0,1-.3,1.215,1.937,1.937,0,0,1-.885.819,2.382,2.382,0,0,1,1.24.92,2.563,2.563,0,0,1,.434,1.469,2.633,2.633,0,0,1-.323,1.3,2.353,2.353,0,0,1-.858.9,3.4,3.4,0,0,1-1.17.43,10.553,10.553,0,0,1-1.733.111h-3.284V287.83Zm1.458-4.43h.91a2.221,2.221,0,0,0,1.455-.365,1.355,1.355,0,0,0,.413-1.073q0-1.375-1.868-1.375h-.91Zm0,4.43h.548a8.254,8.254,0,0,0,1.576-.108,1.381,1.381,0,0,0,.816-.507,1.6,1.6,0,0,0,.316-1.024,1.5,1.5,0,0,0-.3-.955,1.44,1.44,0,0,0-.778-.514,5.418,5.418,0,0,0-1.344-.128h-.833Z" transform="translate(-137.594 -279.226)" fill="#fff"/>
        <path id="Path_725" data-name="Path 725" d="M174.117,287.83v-7.242h-1.25v-1.208h8.027v2.909H179.7v-1.7h-4.125v2.875h3.59v1.208h-3.59v3.159H179.7v-1.757h1.194v2.965h-8.027V287.83Z" transform="translate(-164.507 -279.226)" fill="#fff"/>
        <path id="Path_726" data-name="Path 726" d="M219.538,284.616l1.257.7a4.216,4.216,0,0,1-1.712,2.5,5.1,5.1,0,0,1-2.962.885,4.585,4.585,0,0,1-3.521-1.423,5.51,5.51,0,0,1,.007-7.18,4.653,4.653,0,0,1,3.479-1.361,4.936,4.936,0,0,1,3.187,1.035v-.882h1.25v3.1h-1.25a3.125,3.125,0,0,0-1.285-1.462,3.513,3.513,0,0,0-1.826-.517,3.032,3.032,0,0,0-2.371,1.042,3.811,3.811,0,0,0-.927,2.632,3.692,3.692,0,0,0,.993,2.666,3.154,3.154,0,0,0,2.354,1.035,3.218,3.218,0,0,0,2.035-.719A3.83,3.83,0,0,0,219.538,284.616Z" transform="translate(-193.811 -278.734)" fill="#fff"/>
        <path id="Path_727" data-name="Path 727" d="M259.2,285.642h-3.48l-.739,2.187h1.173v1.208H252.35V287.83h1.169l2.637-7.361h-1.167v-1.09h4.937v1.09h-1.207l2.7,7.361H262.5v1.208h-3.785V287.83h1.2Zm-.364-1.132-1.285-4.041h-.132l-1.338,4.041Z" transform="translate(-225.151 -279.226)" fill="#fff"/>
      </g>
      <g id="Group_653" data-name="Group 653">
        <path id="Path_728" data-name="Path 728" d="M119.5,224.536l.714,1.223-.066.039-.074.043-1.506-2.579.074-.043.074-.043-.012,0,.706,1.208,5.209-3.042.047.081.043.073Z" transform="translate(-114.979 -181.152)" fill="#fff" stroke="#fff" stroke-miterlimit="10" stroke-width="0.75"/>
        <path id="Path_729" data-name="Path 729" d="M110.563,204.094l5.716-2.41.036.086.033.079L113.9,202.88l.908,2.154L117.257,204l.033.078.036.087-5.716,2.41-.036-.087-.033-.079,3.122-1.316-.908-2.154-3.121,1.316-.033-.079Z" transform="translate(-108.872 -166.155)" fill="#fff" stroke="#fff" stroke-miterlimit="10" stroke-width="0.75"/>
        <path id="Path_730" data-name="Path 730" d="M110.629,185.771l.074-.019.082-.022.6,2.329-.082.021-5.831,1.511-.091.023-.6-2.3.091-.023.066-.017.55,2.123,3.122-.809-.43-1.66.082-.021.074-.019.43,1.66,2.412-.625Z" transform="translate(-104.467 -153.983)" fill="#fff" stroke="#fff" stroke-miterlimit="10" stroke-width="0.75"/>
        <path id="Path_731" data-name="Path 731" d="M108.834,166.153l-4.341.19.027.624L103.8,167l-.093-2.123.724-.032.027.624,4.341-.19-.027-.624.724-.032.093,2.123-.724.032Z" transform="translate(-103.638 -137.878)" fill="#fff" stroke="#fff" stroke-miterlimit="10" stroke-width="1"/>
        <path id="Path_732" data-name="Path 732" d="M108.676,144.937l-4.32-.471-.13,1.189,1.47.16-.078.712-2.191-.239.509-4.668,2.191.239-.078.712-1.47-.16-.129,1.185,4.32.471.082-.75.721.079-.257,2.357-.721-.078Z" transform="translate(-103.428 -120.328)" fill="#fff" stroke="#fff" stroke-miterlimit="10" stroke-width="1"/>
        <path id="Path_733" data-name="Path 733" d="M109.885,115.5a1.676,1.676,0,0,1,1.1.079,1.762,1.762,0,0,1,.445.255,1.65,1.65,0,0,1,.318.33,1.224,1.224,0,0,1,.181.361.957.957,0,0,1,.039.36,1.309,1.309,0,0,1,.294-.342,1.07,1.07,0,0,1,.4-.227,1.777,1.777,0,0,1,.616-.055,2.145,2.145,0,0,1,.625.15,1.93,1.93,0,0,1,.758.493,1.4,1.4,0,0,1,.314.592,1.475,1.475,0,0,1,.011.612,3.044,3.044,0,0,1-.164.566l-.361.9-.042.1-5.77-2.324.442-1.1a1.3,1.3,0,0,1,.342-.53A1.181,1.181,0,0,1,109.885,115.5Zm1.461,2.723.4-.984a.889.889,0,0,0,.062-.44,1.063,1.063,0,0,0-.144-.422,1.36,1.36,0,0,0-.312-.359,1.686,1.686,0,0,0-.441-.258,1.589,1.589,0,0,0-.5-.115,1.387,1.387,0,0,0-.471.048,1.125,1.125,0,0,0-.389.2.82.82,0,0,0-.254.343l-.4,1Zm3.314.383a2.046,2.046,0,0,0,.171-.756,1.227,1.227,0,0,0-.128-.573,1.19,1.19,0,0,0-.358-.412,2.071,2.071,0,0,0-.511-.272,1.347,1.347,0,0,0-1.991.878l-.33.818,2.818,1.135Z" transform="translate(-107.414 -100.354)" fill="#fff" stroke="#fff" stroke-miterlimit="10" stroke-width="0.75"/>
        <path id="Path_734" data-name="Path 734" d="M122.657,96.87a1.663,1.663,0,0,1-.1.186q-.057.092-.126.192l-.5.729,2.191,1.5-.058.085-.053.077L118.974,96.2l-.085-.058.064-.093.545-.8a2.187,2.187,0,0,1,.6-.62,1.216,1.216,0,0,1,.637-.207,2.069,2.069,0,0,1,.632.1,2.183,2.183,0,0,1,1.071.731,1.936,1.936,0,0,1,.313.549,1.315,1.315,0,0,1,.086.434,1.118,1.118,0,0,1-.106.473Zm-.082-.988a1.967,1.967,0,0,0-.292-.506,1.991,1.991,0,0,0-.445-.418,1.95,1.95,0,0,0-.544-.258,1.973,1.973,0,0,0-.577-.088,1.033,1.033,0,0,0-.546.185,1.981,1.981,0,0,0-.526.55l-.5.729,2.635,1.8.5-.729a1.918,1.918,0,0,0,.347-.729A1.086,1.086,0,0,0,122.575,95.882Zm.154.821,2.97.448-.117.171-2.931-.444Z" transform="translate(-115.224 -84.315)" fill="#fff" stroke="#fff" stroke-miterlimit="10" stroke-width="0.75"/>
        <path id="Path_735" data-name="Path 735" d="M141.9,83.343l-.152.14L140.166,82.4l-1.2,1.108.943,1.672-.152.14-3.193-5.495.117-.108Zm-5.3-3.553.007-.006.014-.013.007-.006.007-.006.014-.013ZM140,82.3l-3.059-2.193,1.921,3.244Z" transform="translate(-128.71 -73.094)" fill="#fff" stroke="#fff" stroke-miterlimit="10" stroke-width="0.75"/>
        <path id="Path_736" data-name="Path 736" d="M152.934,74.833l-3.393-5.193.083-.054.082-.054,3.393,5.193-.082.054Z" transform="translate(-138.611 -65.326)" fill="#fff" stroke="#fff" stroke-miterlimit="10" stroke-width="0.75"/>
        <path id="Path_737" data-name="Path 737" d="M162.907,65.321l-.091.039-.091.039-2.4-5.628-.034-.079.147-.063,4.523,3.98c.066.059.115.106.147.142s.06.064.082.085l-2.249-5.275.086-.037.1-.041,2.433,5.706-.156.067-4.48-3.952-.142-.13a1.246,1.246,0,0,1-.156-.161Zm-2.494-5.68-.009,0-.009,0-.009,0-.009,0-.009,0-.009,0-.009,0Zm5.084,4.576-.017.007-.017.007-.017.007-.009,0Z" transform="translate(-146.814 -56.896)" fill="#fff" stroke="#fff" stroke-miterlimit="10" stroke-width="0.75"/>
        <path id="Path_738" data-name="Path 738" d="M196.918,52.841a2.06,2.06,0,0,1,.334.545,2.174,2.174,0,0,1,.164.631,2.2,2.2,0,0,1-.031.659,1.936,1.936,0,0,1-.218.593,1.254,1.254,0,0,1-.462.463,2.166,2.166,0,0,1-.854.229l-.878.09.271,2.64-.1.011-.093.009-.623-6.069-.01-.1.112-.012.962-.1a2.189,2.189,0,0,1,.86.058A1.21,1.21,0,0,1,196.918,52.841Zm.071,2.35a2.008,2.008,0,0,0-.23-2.238,1.033,1.033,0,0,0-.493-.3,1.979,1.979,0,0,0-.76-.047l-.877.09.326,3.175.878-.09a1.915,1.915,0,0,0,.781-.2A1.088,1.088,0,0,0,196.989,55.191Z" transform="translate(-172.849 -52.265)" fill="#fff" stroke="#fff" stroke-miterlimit="10" stroke-width="0.75"/>
        <path id="Path_739" data-name="Path 739" d="M217.243,56.835c0,.017-.005.063-.011.136a1.217,1.217,0,0,1-.059.265,2,2,0,0,1-.144.326,1.059,1.059,0,0,1-.265.313,1.245,1.245,0,0,1-.549.217,2.609,2.609,0,0,1-.667.036,2.555,2.555,0,0,1-.648-.142,1.168,1.168,0,0,1-.494-.3,1.037,1.037,0,0,1-.211-.359,1.6,1.6,0,0,1-.079-.362,1.785,1.785,0,0,1,0-.287c.006-.079.01-.128.012-.145l.281-3.487a1.622,1.622,0,0,1,.156-.6,1.1,1.1,0,0,1,.378-.428.983.983,0,0,1,.24-.118,1.848,1.848,0,0,1,.293-.075,2.8,2.8,0,0,1,.3-.035,1.994,1.994,0,0,1,.283,0,2.564,2.564,0,0,1,.274.039,2.346,2.346,0,0,1,.3.08,2.147,2.147,0,0,1,.283.117.9.9,0,0,1,.218.15,1.31,1.31,0,0,1,.39,1.118Zm.088-3.554a1.326,1.326,0,0,0-.048-.517,1.14,1.14,0,0,0-.2-.376.931.931,0,0,0-.217-.167,1.971,1.971,0,0,0-.272-.129,1.781,1.781,0,0,0-.29-.083,2.327,2.327,0,0,0-.261-.038,2.37,2.37,0,0,0-.457.01,1.187,1.187,0,0,0-.45.144,1.01,1.01,0,0,0-.352.34,1.284,1.284,0,0,0-.175.6l-.281,3.5a1.643,1.643,0,0,0-.011.367,1.847,1.847,0,0,0,.068.331.849.849,0,0,0,.181.323.958.958,0,0,0,.431.253,2.447,2.447,0,0,0,.565.118,2.514,2.514,0,0,0,.292.006,2.078,2.078,0,0,0,.3-.032,1.7,1.7,0,0,0,.274-.072.644.644,0,0,0,.207-.116.871.871,0,0,0,.23-.281,1.662,1.662,0,0,0,.118-.295,1.723,1.723,0,0,0,.056-.333Z" transform="translate(-187.873 -51.786)" fill="#fff" stroke="#fff" stroke-miterlimit="10" stroke-width="0.75"/>
        <path id="Path_740" data-name="Path 740" d="M237.124,58.155,235.2,60.7l-.162-.05,1.007-6.162.188.058-.913,5.664,1.84-2.443.144.044.152,3.055,2.4-5.207.2.061-2.613,5.669-.161-.05ZM235.1,60.665l.009,0,.009,0,.009,0Zm.045.014.009,0,.009,0,.009,0Zm2.131-2.881-.009,0-.009,0-.009,0-.009,0-.009,0-.009,0-.009,0-.009,0Zm.077,3.558-.009,0-.009,0-.009,0Zm.045.014-.009,0-.009,0-.009,0Z" transform="translate(-203.848 -53.847)" fill="#fff" stroke="#fff" stroke-miterlimit="10" stroke-width="0.75"/>
        <path id="Path_741" data-name="Path 741" d="M256.344,71.21l-.038.067-.042.074-2.3-1.307L254,69.97l2.975-5.238.046-.082,2.269,1.288-.046.082-.034.059-2.1-1.191-1.593,2.8,1.64.932-.042.074-.038.067-1.64-.932L254.213,70Z" transform="translate(-218.282 -61.601)" fill="#fff" stroke="#fff" stroke-miterlimit="10" stroke-width="0.75"/>
        <path id="Path_742" data-name="Path 742" d="M272.04,80.724a1.677,1.677,0,0,1-.173-.122q-.084-.068-.176-.148l-.666-.579-1.741,2-.078-.068-.071-.062,4-4.6.067-.077.085.074.73.635a2.184,2.184,0,0,1,.546.667,1.211,1.211,0,0,1,.131.657,2.066,2.066,0,0,1-.169.616,2.186,2.186,0,0,1-.851.979,1.94,1.94,0,0,1-.581.246,1.311,1.311,0,0,1-.441.035,1.121,1.121,0,0,1-.457-.161Zm.99.034a2.033,2.033,0,0,0,1-.624,2.038,2.038,0,0,0,.474-1.073,1.032,1.032,0,0,0-.12-.563,1.972,1.972,0,0,0-.485-.586l-.666-.579-2.095,2.408.666.579a1.913,1.913,0,0,0,.683.43A1.088,1.088,0,0,0,273.03,80.758Zm-.833.057-.791,2.9-.156-.136.783-2.859Z" transform="translate(-229.858 -71.075)" fill="#fff" stroke="#fff" stroke-miterlimit="10" stroke-width="0.75"/>
        <path id="Path_743" data-name="Path 743" d="M291.888,108.683l-.112.071a1.717,1.717,0,0,1-.273.134,1.936,1.936,0,0,1-.378.106,1.013,1.013,0,0,1-.424-.015,1.408,1.408,0,0,1-.838-.669,1.307,1.307,0,0,1-.232-1.02,1.059,1.059,0,0,1,.162-.4,1.578,1.578,0,0,1,.241-.281,1.413,1.413,0,0,1,.229-.173l.125-.073,2.962-1.877a1.326,1.326,0,0,1,1.142-.191,1.4,1.4,0,0,1,.418.23,1.463,1.463,0,0,1,.336.37,1.5,1.5,0,0,1,.233.941,1.141,1.141,0,0,1-.221.568,1.783,1.783,0,0,1-.505.47l-.111-.174a1.436,1.436,0,0,0,.432-.4,1.174,1.174,0,0,0,.192-.455,1.145,1.145,0,0,0-.01-.455,1.255,1.255,0,0,0-.161-.4,1.309,1.309,0,0,0-.29-.322,1.108,1.108,0,0,0-.385-.2,1.04,1.04,0,0,0-.458-.021,1.363,1.363,0,0,0-.507.2l-2.969,1.882-.007,0a2.4,2.4,0,0,0-.294.214,1.414,1.414,0,0,0-.22.251.9.9,0,0,0-.146.343,1.133,1.133,0,0,0,.2.865,1.193,1.193,0,0,0,.714.57.9.9,0,0,0,.376.012,1.67,1.67,0,0,0,.337-.1,2.28,2.28,0,0,0,.34-.182Z" transform="translate(-245.476 -91.808)" fill="#fff" stroke="#fff" stroke-miterlimit="10" stroke-width="0.75"/>
        <path id="Path_744" data-name="Path 744" d="M300.02,126.966l-.127.049a1.2,1.2,0,0,1-.264.061,1.969,1.969,0,0,1-.357.011,1.068,1.068,0,0,1-.4-.1,1.242,1.242,0,0,1-.433-.4,2.619,2.619,0,0,1-.321-.586,2.551,2.551,0,0,1-.152-.645,1.164,1.164,0,0,1,.058-.575,1.027,1.027,0,0,1,.233-.346,1.591,1.591,0,0,1,.292-.228,1.746,1.746,0,0,1,.257-.129l.135-.052,3.266-1.254a1.629,1.629,0,0,1,.608-.118,1.107,1.107,0,0,1,.549.156.975.975,0,0,1,.21.166,1.838,1.838,0,0,1,.194.232,2.725,2.725,0,0,1,.164.259,1.978,1.978,0,0,1,.121.255,2.529,2.529,0,0,1,.083.265,2.352,2.352,0,0,1,.059.309,2.085,2.085,0,0,1,.017.305.89.89,0,0,1-.041.262,1.31,1.31,0,0,1-.84.835Zm3.243-1.456a1.326,1.326,0,0,0,.446-.267,1.142,1.142,0,0,0,.252-.343.926.926,0,0,0,.057-.268,1.966,1.966,0,0,0,0-.3,1.8,1.8,0,0,0-.05-.3,2.407,2.407,0,0,0-.078-.251,2.373,2.373,0,0,0-.207-.408,1.186,1.186,0,0,0-.324-.343,1.008,1.008,0,0,0-.458-.171,1.282,1.282,0,0,0-.615.1l-3.274,1.257a1.652,1.652,0,0,0-.336.149,1.815,1.815,0,0,0-.269.2.85.85,0,0,0-.213.3.966.966,0,0,0-.042.5,2.442,2.442,0,0,0,.138.561,2.531,2.531,0,0,0,.12.265,2.1,2.1,0,0,0,.158.256,1.684,1.684,0,0,0,.184.216.645.645,0,0,0,.194.137.867.867,0,0,0,.353.086,1.7,1.7,0,0,0,.316-.021,1.757,1.757,0,0,0,.325-.094Z" transform="translate(-251.851 -105.853)" fill="#fff" stroke="#fff" stroke-miterlimit="10" stroke-width="0.75"/>
        <path id="Path_745" data-name="Path 745" d="M308.265,144.171l-5.712.665-.011-.093-.012-.1,6.077-.708h.008l.076-.009.018.159-2.867,2.082,3.269,1.367.017.149-.076.009h-.008l-6.077.708-.012-.1-.011-.1,5.721-.666-3.112-1.272-.015-.131Zm.442-.118v-.065Zm.407,3.5v.065Z" transform="translate(-255.339 -122.085)" fill="#fff" stroke="#fff" stroke-miterlimit="10" stroke-width="0.75"/>
        <path id="Path_746" data-name="Path 746" d="M309.429,170.316a2.063,2.063,0,0,1-.6.216,2.177,2.177,0,0,1-.651.032,2.216,2.216,0,0,1-.639-.165,1.948,1.948,0,0,1-.536-.333,1.251,1.251,0,0,1-.36-.547,2.161,2.161,0,0,1-.051-.883l.09-.878-2.64-.271.011-.1.009-.093,6.069.624.1.01-.012.112-.1.962a2.179,2.179,0,0,1-.231.83A1.211,1.211,0,0,1,309.429,170.316Zm-2.316-.408a2.038,2.038,0,0,0,1.088.461,1.951,1.951,0,0,0,.6-.032,1.973,1.973,0,0,0,.549-.2,1.035,1.035,0,0,0,.392-.422,1.981,1.981,0,0,0,.2-.734l.09-.878-3.174-.326-.09.878a1.915,1.915,0,0,0,.042.806A1.088,1.088,0,0,0,307.113,169.908Z" transform="translate(-256.492 -139.915)" fill="#fff" stroke="#fff" stroke-miterlimit="10" stroke-width="0.75"/>
        <path id="Path_747" data-name="Path 747" d="M298.788,186.616l.054-.2,1.914.083.428-1.576-1.688-.916.054-.2,5.624,2.958-.042.154Zm2.156-.124,3.756.233L301.35,185Zm4.219.32,0,.009-.005.018,0,.009,0,.009,0,.018Z" transform="translate(-252.484 -152.516)" fill="#fff" stroke="#fff" stroke-miterlimit="10" stroke-width="0.75"/>
        <path id="Path_748" data-name="Path 748" d="M293.144,200.571l.039-.091.039-.091,5.626,2.4.078.034-.063.147-6.02.254a2.028,2.028,0,0,1-.2,0c-.048,0-.087,0-.119,0l5.273,2.253-.037.087-.041.095-5.7-2.438.067-.156,5.969-.245.192,0a1.247,1.247,0,0,1,.224.009Zm-1.107,2.589.007-.017.008-.017.007-.017,0-.009Zm6.837-.212,0-.009,0-.009,0-.009,0-.009,0-.009,0-.009,0-.009Z" transform="translate(-247.314 -165.168)" fill="#fff" stroke="#fff" stroke-miterlimit="10" stroke-width="0.75"/>
        <path id="Path_749" data-name="Path 749" d="M291.076,226.4l-.108.187-1.958-2.649-2.741-1.584.049-.085.049-.085,2.741,1.584,3.273.374-.108.187-3.066-.39Z" transform="translate(-242.932 -181.792)" fill="#fff" stroke="#fff" stroke-miterlimit="10" stroke-width="0.75"/>
      </g>
      <path id="Path_750" data-name="Path 750" d="M172.96,101.391c-1.129-5.675-3.986-10.088-9.283-12.679a20.723,20.723,0,0,0-11.948-1.829c-4.033.5-7.705,1.85-10.533,4.77-5.549,5.729-6.441,12.62-4.434,20.066.875,3.253,3.107,5.734,5.019,8.384a15.076,15.076,0,0,1,2.984,6.784c.152,1.09.317,2.182.458,3.274.146,1.142,1.033.657,1.637.736.576.075,1.065-.054,1.064-.822a19.575,19.575,0,0,0-3.866-11.814c-1.791-2.443-3.685-4.813-4.7-7.733a17.131,17.131,0,0,1-.608-6.686,15.412,15.412,0,0,1,3.789-9.39c4.958-5.781,14.765-6.228,20.484-2.844,5.4,3.2,7.436,8.243,7.388,14.323a14.993,14.993,0,0,1-3.274,9.443,46.335,46.335,0,0,0-3.043,4.316,18.531,18.531,0,0,0-2.872,10.008c0,.421-.128.918.447,1.153a1.575,1.575,0,0,0,2.394-1.539,16.55,16.55,0,0,1,3.977-10.208c6.251-6.251,5.186-16.37,4.918-17.715" transform="translate(-128.114 -78.416)" fill="#fff"/>
      <path id="Path_751" data-name="Path 751" d="M225.974,328.81q-2.237,0-4.473,0c-.011.114-.023.228-.033.344a11.707,11.707,0,0,0,7.342,1.993,1.053,1.053,0,0,0,1.036-1.163,1.083,1.083,0,0,0-1.164-1.156c-.9-.028-1.8-.016-2.707-.018" transform="translate(-193.49 -263.149)" fill="#fff"/>
      <path id="Path_752" data-name="Path 752" d="M187.506,334.622a15.739,15.739,0,0,0,7.8,2.263c.821.014,1.632-.14,1.748-1.115.124-1.056-.732-1.258-1.528-1.362-.89-.116-1.794-.116-2.681-.245-2.609-.379-4.833-1.715-7.1-2.939a13.82,13.82,0,0,0-5.684-1.308,1.3,1.3,0,0,0-1.524,1.122c-.115.888.521,1.191,1.305,1.268.365.035.725.163,1.09.173a13.287,13.287,0,0,1,6.568,2.143" transform="translate(-160.729 -263.988)" fill="#fff"/>
      <path id="Path_753" data-name="Path 753" d="M194.468,369.266a1.2,1.2,0,0,0,1.327,1.288q4.165.03,8.331,0c.789,0,1.4-.4,1.374-1.234s-.636-1.147-1.447-1.136c-1.347.021-2.695.007-4.043.007-1.388,0-2.777.006-4.166,0-.752,0-1.351.3-1.377,1.075" transform="translate(-172.889 -293.191)" fill="#fff"/>
      <path id="Path_754" data-name="Path 754" d="M178.541,350.493a1.17,1.17,0,0,0,1.219,1.274c2.4.054,4.795.021,7.192.021.023-.128.045-.255.067-.383a11.585,11.585,0,0,0-7.111-1.981c-.745.04-1.33.256-1.367,1.069" transform="translate(-160.737 -278.866)" fill="#fff"/>
      <path id="Path_755" data-name="Path 755" d="M180.436,131.7c.478-.47.62-.216.755.1a1.417,1.417,0,0,0,.687.8c.385.187.371.595.241.986-.032.109-.125.233-.226.171-.309-.205-.736-.146-.969-.48a.766.766,0,0,0-.91-.33,2.657,2.657,0,0,1-1.122.065c-.165-.03-.447.03-.393-.366.027-.194-.122-.145-.2-.082a1.071,1.071,0,0,0-.408.763c-.016.117.013.206.172.174a16.13,16.13,0,0,0,2.014-.23c.429-.147.68.2.58.712-.054.276-.178.536-.246.812a1.118,1.118,0,0,0,.491,1.338,3.43,3.43,0,0,1-.045-1.7c.054-.22.087-.491.313-.551.264-.067.389.2.513.4a1.859,1.859,0,0,1-1.207,2.862,7.565,7.565,0,0,1-1.8.018.6.6,0,0,1-.614-.42c-.1-.339.118-.522.317-.709a3.123,3.123,0,0,0,1.063-1.214,1.316,1.316,0,0,0-.585.437c-.986.954-1.889.529-2.845-.192a.632.632,0,0,1-.18-.458,4.724,4.724,0,0,1,.139-2.091c.252-.658-.009-.906-.535-1.156.09.377.358.644.27,1.03-.139.613-.319,1.085-.975,1.279a3.937,3.937,0,0,0-2.216,1.561,2.027,2.027,0,0,1-1.363.843c-.526.085-.644-.054-.5-.606.1-.4.256-.787.389-1.179a1.148,1.148,0,0,0,.143-.616,3.57,3.57,0,0,0-.805,1.571,3.194,3.194,0,0,1-2.066,2.128,2,2,0,0,1-.393.108c-.989.216-1.6-.385-1.147-1.428a.488.488,0,0,0-.049-.562c-.159.871-.743.878-1.34.943a4.563,4.563,0,0,0-1.942.523c.566,0,1.1-.211,1.662-.218a1.454,1.454,0,0,1,1.356.629,1.4,1.4,0,0,0,1.6.475,2.162,2.162,0,0,1,1.156,0,.9.9,0,0,0,1.111-.331c-.278-.063-.507.11-.726-.005-.177-.1-.328-.214-.087-.4.374-.294.7-.779,1.262-.507.089.042.206-.012.308,0,.277.043.726-.425.755.369.051,1.384.037,1.471-.738,1.5-.444.021-.888-.025-1.333.008a1.45,1.45,0,0,0-1.19.561c-.175.245-.383.148-.555.046a1.594,1.594,0,0,0-1.54-.024,3.159,3.159,0,0,1-2.406.051,9.822,9.822,0,0,1-1.977-.8,1.13,1.13,0,0,1-.4-1.693c.217.094.169.519.489.5.079-.265-.266-.546-.037-.75.4-.355.619-.919,1.144-1.112,1.329-.5,2.655-1,3.983-1.508a.837.837,0,0,1,.964.163c.26.273.124.639.03.968-.054.191-.216.346-.162.62a1.715,1.715,0,0,0,.625-1.128.873.873,0,0,1,.5-.647,10.164,10.164,0,0,0,1.817-1.574,3.385,3.385,0,0,1,1.088-.738.877.877,0,0,1,.555,0,.468.468,0,0,1,.323.464c.01.277-.2.262-.364.292-.1.018-.207.013-.277.115.343.422,1.1.358,1.817-.177-.321-.112-.775.142-.841-.475a4.068,4.068,0,0,1-.09-1.131,1.142,1.142,0,0,1,1.858-.6,2.517,2.517,0,0,0,2.468.442c1.266-.306,1.272-.275,1.871,1.159a2.108,2.108,0,0,0-.487-1.543.689.689,0,0,1,.071-1.076,6.2,6.2,0,0,1,2.187-.935c.23-.082.386.211.5.422a4.18,4.18,0,0,1,.342,2.764c-.054.3.041.794-.26.843-.26.042-.372-.44-.514-.711-.239-.461-.451-.941-.678-1.409a.792.792,0,0,0-.506-.53,3.013,3.013,0,0,1,.335,2.363m.318-4.707a.988.988,0,0,1-.676.96c-.38.179-.755.371-1.132-.065a10.408,10.408,0,0,1-1.114-1.7c-.211-.376-.431-.706-.9-.557-.109.035-.2.02-.235-.132-.143-.587-.587-.689-1.034-.777-.2-.04-.429.011-.475-.31a.664.664,0,0,1,.279-.631,2.451,2.451,0,0,0,.444-.423c-.48.128-.967.379-1.292-.314.377,1.126.281,1.458-.69,2.08a1.272,1.272,0,0,0-.671,1.324,1.691,1.691,0,0,1,1.137-1.176,2.537,2.537,0,0,1,1.56-.148c.357.083.491.331.467.752a7.088,7.088,0,0,0,.163,2.323c.054.208.082.459.414.493a4.244,4.244,0,0,1-.311-1.9c0-.3,0-.628.333-.755s.486.14.621.373a18.346,18.346,0,0,1,.913,1.656,1.547,1.547,0,0,1-1.139,1.982,1.994,1.994,0,0,1-2.457-1.134c-.145-.25-.271-.513-.419-.8-.045.069-.075.094-.078.125-.041.328.332.643.143.893-.143.191-.511.073-.78.148a1.36,1.36,0,0,0-.956,1.2c-.038.217-.064.426-.324.411-.24-.009-.5.005-.622-.282-.118-.267.069-.423.215-.58a3.162,3.162,0,0,0,.921-1.683c-.372.443-.543.866-.857,1.159a5.851,5.851,0,0,1-1.018.763c.162.17.448.159.439.483a.836.836,0,0,1-.308.623c-.383.375-.76.768-1.146,1.141-.112.1-.236.249-.407.166s-.121-.256-.143-.4a6.046,6.046,0,0,1,.134-1.98,1.388,1.388,0,0,1,.443-.747,3.641,3.641,0,0,1,.354-.332,3.051,3.051,0,0,0,1.33-3.43,1.033,1.033,0,0,1,.282-.987,9,9,0,0,0,1.6-2.363,1.4,1.4,0,0,1,1.765-.853,3.348,3.348,0,0,1,2.806,2.7,3.761,3.761,0,0,0,1.136,2.07c-.167-.388-.358-.766-.493-1.167-.1-.293-.343-.705-.119-.9s.511.187.747.352A2.651,2.651,0,0,1,180.753,127m-7.559-4.58a3.466,3.466,0,0,1-1,1.577,2.481,2.481,0,0,0-.711,2.66,1.678,1.678,0,0,1-.554,1.708.565.565,0,0,1-.083.07c-1.394.859-1.729,2.26-1.6,3.891a.872.872,0,0,1-.636,1.015.942.942,0,0,1-1.209-.443,9.568,9.568,0,0,1-.678-2.207,3.069,3.069,0,0,0,.166,1.534c.156.787.1,1-.543,1.375a10.707,10.707,0,0,1-2.755,1.063c-.282.073-.409-.062-.516-.315-.088-.217-.1-.483-.352-.644a1.251,1.251,0,0,0-.008.776,1.039,1.039,0,0,1-.411,1.088c-.432.3-.863.654-1.425.427a.722.722,0,0,1-.389-.5,7.2,7.2,0,0,0-.614-1.5c.651-.31,1.209-.338,1.574.558-.245-1.1.557-1.823.616-2.763a1.155,1.155,0,0,1,.158-.419c.159-.3.354-.609.693-.606s.423.4.546.682a6.621,6.621,0,0,1,.312,1.569,2.151,2.151,0,0,0,.075-1.475c-.458-1.906.124-2.817,1.9-2.988a2.493,2.493,0,0,1,2.5,1.443c.087.152.109.365.344.473a2.816,2.816,0,0,0-.674-1.678.944.944,0,0,1-.166-1.028,3.7,3.7,0,0,1,.349-.762c.422-.667.687-.683,1.167-.082.326.407.653.812,1.015,1.262a.854.854,0,0,0-.314-1.007,2.582,2.582,0,0,1-.87-1.378,1.968,1.968,0,0,1,.913-2.313c.263-.192.539-.36.831-.553a.773.773,0,0,0-.1-.082c-.248-.114-.664.2-.738-.361a1.469,1.469,0,0,1,.625-1.291,2.342,2.342,0,0,1,2.228.169.814.814,0,0,1,.331,1.06m-3.62-.774c-.142.9-.142.9-.9.52a4.384,4.384,0,0,1-.931-.586c-.306-.265-.321-.465.073-.617.157-.066.316-.133.485-.2.385.1.766.19,1.139.311.3.1.17.362.138.573m-.4,1.275c.251.2.364.375.1.676a2.746,2.746,0,0,0-.748,1.942c.014.384-.213.285-.379.189a5.018,5.018,0,0,1-2.493-2.589c-.355.082-.027.593-.341.665a5.283,5.283,0,0,1-.758.069.391.391,0,0,0,.4.347c1.122.182,1.814,1.17,2.709,1.776a.3.3,0,0,1,.06.444,1.244,1.244,0,0,0-.214.387c-.193,1.036-.845,1.167-1.664,1.205a3.154,3.154,0,0,0-2.862,1.89.881.881,0,0,1-1.28.443,4.2,4.2,0,0,0-1.187-.528c.068.248.243.306.362.406a2.169,2.169,0,0,1,.776,1.172c.255,1.171-.248,1.863-1.531,2.084a2.319,2.319,0,0,1-1.311-.175,1.06,1.06,0,0,1-.655-1.108c.009-.525.286-.8.76-.737a2.1,2.1,0,0,1,.549.143,4.039,4.039,0,0,1,.525.365c-.165-.44-.3-.761-.4-1.09a2.25,2.25,0,0,1,.679-2.634,1.349,1.349,0,0,1,.318-.185c.633-.261.928.029.886,1.059.668-1.676,1.562-2.86,3.123-3.235a1.757,1.757,0,0,0-1.059.07.54.54,0,0,1-.68-.22,2.879,2.879,0,0,1,1-4.364,3.942,3.942,0,0,1,3.242.284,13.492,13.492,0,0,1,2.074,1.25m-7.406.771a4.946,4.946,0,0,1-1.384,2.355c.912-.287.607.689,1.121.931a1.939,1.939,0,0,1,.3-2.068,4.017,4.017,0,0,0,.806,1.328c.143.138.093.261-.023.383a2.145,2.145,0,0,0-.313.375c-.263.483-.52.859-1.11.446a.747.747,0,0,0-.878.121c-.307.251-.451.111-.653-.179a1.8,1.8,0,0,1-.086-2.2.85.85,0,0,0,.172-.649,16.547,16.547,0,0,1-1.809,2.529c.089.041.123.073.146.064.264-.083.5-.474.788-.241a2.652,2.652,0,0,1,.726,1.156c.091.237-.126.417-.223.611a2.118,2.118,0,0,1-1.237,1.109c-.517.165-1.06.482-1.44-.359.318.608-.145,1.371.43,1.949,0-.84.289-1.141,1.121-1.264.614-.088.749.055,1.047,1.141a2.366,2.366,0,0,0-.3-.021c-.387.02-.809-.062-1.031.438a1.652,1.652,0,0,0,.229,1.552,1.319,1.319,0,0,0,.767.546c.571.087.8.517.966,1.043a3.436,3.436,0,0,0,.814,1.742c.159.132.054.272-.05.384a.649.649,0,0,1-.584.145c-1.476-.19-3.348-1.958-3.41-3.416A5.969,5.969,0,0,1,159,135.658a1.023,1.023,0,0,0,.106-1.211c-.286.551-.607.34-.839.023a4.33,4.33,0,0,0-1.564-1.352.879.879,0,0,1-.439-.542,11.3,11.3,0,0,1-.619-2.816,2.236,2.236,0,0,1,.055-.561c.17-.757.462-.979,1.133-.829.376.082.742.227,1.169.363-.106-.349-.337-.4-.528-.485a6.188,6.188,0,0,1-.717-.309.7.7,0,0,1-.328-.954,7.39,7.39,0,0,1,4.233-4.072,2.232,2.232,0,0,1,.51-.073c.793-.079.829-.029.594.848m.915,15.906a9.928,9.928,0,0,0,2.346.15,6.358,6.358,0,0,0,1.562-.283,1.7,1.7,0,0,1,1.105.078c.11.036.263.076.276.225s-.153.178-.245.251c-.207.155-.5.086-.784.46a2.38,2.38,0,0,0,1.837-.813,1.439,1.439,0,0,1,1.256-.606,3.465,3.465,0,0,0,2.14-.377c.229-.168.324.182.6.292a19.348,19.348,0,0,1-4.793,2.382.49.49,0,0,1-.306,0c-1.053-.48-2.16-.175-3.241-.265a1.685,1.685,0,0,1-1.758-1.5m9.894-1.308a2.6,2.6,0,0,1-.211-2.175,3.916,3.916,0,0,1,.808-1.029c.1-.091.2-.249.35-.165s.123.258.116.409a11.991,11.991,0,0,0-.015,1.364,1.426,1.426,0,0,0,.245-.955,2.049,2.049,0,0,1,1.232-1.923c.2-.106.331-.109.324.194a6.609,6.609,0,0,1-.386,3.057c.416-.12.456-.409.536-.679.2-.7.292-.743.918-.463.255.112.507.231.762.34a.53.53,0,0,1,.329.575c-.012.274-.192.316-.387.365a27.267,27.267,0,0,0-3.158,1.168c-.491.192-1.011.495-1.463-.083m10.323-3.15a2.386,2.386,0,0,1,.164-1.266,1.419,1.419,0,0,0,.024-1.165,2.5,2.5,0,0,1-.1-1.39,5.3,5.3,0,0,0-.954-4.064,3.466,3.466,0,0,1-.58-1.114,4.909,4.909,0,0,0-1.974-2.757,2.351,2.351,0,0,1-.651-.548,5.005,5.005,0,0,0-4-2.105,2.6,2.6,0,0,1-1.455-.263,3.153,3.153,0,0,0-2.632-.383,1.824,1.824,0,0,1-1.1-.046,2.74,2.74,0,0,0-2.536.111,1.841,1.841,0,0,1-1.01.141c-.323,0-.649-.01-.945-.018a5.87,5.87,0,0,0-2.367.6,11.21,11.21,0,0,1-2.78,1.214c-2.119.737-3.455,2.514-4.5,4.594a1.146,1.146,0,0,0-.09.5,1.691,1.691,0,0,1-.27.9,3.442,3.442,0,0,0-.4,2.295,44.054,44.054,0,0,0,1.189,4.307,2.764,2.764,0,0,0,.532.969,6.315,6.315,0,0,0,2.307,1.762c.648.342,1.488.274,1.976.853a8.617,8.617,0,0,1,1.087,2.062,2.8,2.8,0,0,0,2.594,1.787,15.454,15.454,0,0,1,2.908.2,2.1,2.1,0,0,0,1.622-.323c1.555-.88,3.123-1.737,4.717-2.525a9.357,9.357,0,0,1,5.014-1.4c.475.046.951.106,1.427.143a2.686,2.686,0,0,0,2.78-3.064" transform="translate(-142.551 -103.66)" fill="#fff"/>
    </g>
  </g>
</svg>
